<?xml version="1.0" encoding="utf-8" ?>
<svg baseProfile="tiny" height="1024px" version="1.2" width="1536px" xmlns="http://www.w3.org/2000/svg" xmlns:ev="http://www.w3.org/2001/xml-events" xmlns:xlink="http://www.w3.org/1999/xlink"><defs /><rect fill="black" height="1024" width="1536" x="0" y="0" /><path d="M 981,863 L 981,936 L 995,936 L 995,863 Z" fill="Teal" /><path d="M 896,863 L 896,936 L 910,936 L 910,886 L 911,885 L 913,887 L 913,888 L 914,889 L 914,890 L 916,892 L 916,893 L 917,894 L 917,895 L 919,897 L 919,898 L 921,900 L 921,901 L 923,903 L 923,904 L 924,905 L 924,906 L 926,908 L 926,909 L 928,911 L 928,912 L 930,914 L 930,915 L 931,916 L 931,917 L 933,919 L 933,920 L 935,922 L 935,923 L 937,925 L 937,926 L 939,928 L 939,929 L 940,930 L 940,931 L 943,934 L 943,935 L 944,936 L 957,936 L 958,935 L 957,934 L 958,933 L 958,863 L 943,863 L 943,910 L 944,911 L 943,912 L 942,912 L 941,911 L 941,910 L 939,908 L 939,907 L 937,905 L 937,904 L 936,903 L 936,902 L 934,900 L 934,899 L 932,897 L 932,896 L 930,894 L 930,893 L 929,892 L 929,891 L 926,888 L 926,887 L 925,886 L 925,885 L 923,883 L 923,882 L 921,880 L 921,879 L 919,877 L 919,876 L 917,874 L 917,873 L 916,872 L 916,871 L 913,868 L 913,867 L 912,866 L 912,865 L 910,863 Z" fill="Teal" /><path d="M 734,863 L 734,936 L 749,936 L 749,908 L 750,907 L 762,907 L 763,908 L 763,909 L 764,910 L 764,911 L 765,912 L 765,914 L 766,915 L 766,916 L 767,917 L 767,918 L 768,919 L 768,920 L 769,921 L 769,922 L 770,923 L 770,924 L 771,925 L 771,926 L 772,927 L 772,928 L 773,929 L 773,930 L 774,931 L 774,932 L 775,933 L 775,934 L 776,935 L 776,936 L 791,936 L 791,935 L 790,934 L 790,933 L 789,932 L 789,931 L 788,930 L 788,929 L 787,928 L 787,927 L 786,926 L 786,925 L 785,924 L 785,923 L 784,922 L 784,921 L 783,920 L 783,919 L 782,918 L 782,916 L 781,915 L 781,914 L 780,913 L 780,912 L 779,911 L 779,910 L 778,909 L 778,908 L 777,907 L 777,906 L 776,905 L 778,903 L 779,903 L 780,902 L 781,902 L 786,897 L 786,896 L 787,895 L 787,894 L 788,893 L 788,891 L 789,890 L 789,881 L 788,880 L 788,877 L 787,876 L 787,875 L 786,874 L 786,873 L 781,868 L 780,868 L 778,866 L 777,866 L 776,865 L 774,865 L 773,864 L 769,864 L 768,863 Z" fill="Teal" /><path d="M 658,863 L 658,875 L 679,875 L 680,876 L 680,936 L 694,936 L 694,876 L 695,875 L 716,875 L 716,863 Z" fill="Teal" /><path d="M 511,863 L 511,936 L 560,936 L 560,925 L 561,924 L 527,924 L 526,923 L 526,905 L 527,904 L 558,904 L 558,893 L 527,893 L 526,892 L 526,876 L 527,875 L 559,875 L 559,863 Z" fill="Teal" /><path d="M 445,863 L 445,936 L 492,936 L 492,928 L 493,927 L 493,924 L 461,924 L 460,923 L 460,863 Z" fill="Teal" /><path d="M 376,863 L 376,936 L 424,936 L 424,924 L 392,924 L 391,923 L 391,905 L 392,904 L 422,904 L 422,893 L 392,893 L 391,892 L 391,876 L 392,875 L 423,875 L 423,863 Z" fill="Teal" /><path d="M 1118,862 L 1117,863 L 1114,863 L 1113,864 L 1112,864 L 1111,865 L 1110,865 L 1109,866 L 1108,866 L 1107,867 L 1106,867 L 1102,871 L 1102,872 L 1100,874 L 1100,875 L 1099,876 L 1099,879 L 1098,880 L 1098,889 L 1099,890 L 1099,892 L 1100,893 L 1100,894 L 1105,899 L 1106,899 L 1107,900 L 1108,900 L 1109,901 L 1110,901 L 1111,902 L 1113,902 L 1114,903 L 1117,903 L 1118,904 L 1121,904 L 1122,905 L 1125,905 L 1126,906 L 1129,906 L 1130,907 L 1132,907 L 1133,908 L 1134,908 L 1138,912 L 1138,913 L 1139,914 L 1139,918 L 1138,919 L 1138,920 L 1134,924 L 1132,924 L 1131,925 L 1120,925 L 1119,924 L 1117,924 L 1116,923 L 1115,923 L 1111,919 L 1111,918 L 1110,917 L 1110,915 L 1097,915 L 1097,919 L 1098,920 L 1098,923 L 1099,924 L 1099,925 L 1101,927 L 1101,928 L 1104,931 L 1105,931 L 1107,933 L 1108,933 L 1109,934 L 1110,934 L 1111,935 L 1114,935 L 1115,936 L 1120,936 L 1121,937 L 1129,937 L 1130,936 L 1135,936 L 1136,935 L 1138,935 L 1139,934 L 1141,934 L 1143,932 L 1144,932 L 1149,927 L 1149,926 L 1151,924 L 1151,922 L 1152,921 L 1152,918 L 1153,917 L 1153,909 L 1152,908 L 1152,906 L 1151,905 L 1151,904 L 1150,903 L 1150,902 L 1148,900 L 1147,900 L 1145,898 L 1144,898 L 1143,897 L 1142,897 L 1141,896 L 1139,896 L 1138,895 L 1136,895 L 1135,894 L 1132,894 L 1131,893 L 1128,893 L 1127,892 L 1123,892 L 1122,891 L 1120,891 L 1119,890 L 1117,890 L 1113,886 L 1113,885 L 1112,884 L 1112,880 L 1113,879 L 1113,878 L 1116,875 L 1117,875 L 1118,874 L 1119,874 L 1120,873 L 1127,873 L 1128,874 L 1131,874 L 1132,875 L 1133,875 L 1138,880 L 1138,882 L 1152,882 L 1152,879 L 1151,878 L 1151,876 L 1150,875 L 1150,874 L 1148,872 L 1148,871 L 1145,868 L 1144,868 L 1142,866 L 1141,866 L 1140,865 L 1139,865 L 1138,864 L 1136,864 L 1135,863 L 1132,863 L 1131,862 Z" fill="Teal" /><path d="M 1044,862 L 1043,863 L 1039,863 L 1038,864 L 1036,864 L 1035,865 L 1034,865 L 1033,866 L 1032,866 L 1030,868 L 1029,868 L 1022,875 L 1022,876 L 1020,878 L 1020,879 L 1019,880 L 1019,881 L 1018,882 L 1018,884 L 1017,885 L 1017,888 L 1016,889 L 1016,894 L 1015,895 L 1015,906 L 1016,907 L 1016,911 L 1017,912 L 1017,915 L 1018,916 L 1018,918 L 1019,919 L 1019,920 L 1020,921 L 1020,922 L 1022,924 L 1022,925 L 1029,932 L 1030,932 L 1031,933 L 1032,933 L 1033,934 L 1034,934 L 1035,935 L 1037,935 L 1038,936 L 1042,936 L 1043,937 L 1053,937 L 1054,936 L 1059,936 L 1060,935 L 1062,935 L 1063,934 L 1065,934 L 1067,932 L 1068,932 L 1070,930 L 1071,930 L 1073,928 L 1073,927 L 1076,924 L 1076,923 L 1077,922 L 1077,921 L 1078,920 L 1078,919 L 1079,918 L 1079,916 L 1080,915 L 1080,913 L 1066,913 L 1065,914 L 1065,916 L 1064,917 L 1064,918 L 1059,923 L 1058,923 L 1057,924 L 1055,924 L 1054,925 L 1047,925 L 1046,924 L 1043,924 L 1042,923 L 1041,923 L 1039,921 L 1038,921 L 1035,918 L 1035,917 L 1034,916 L 1034,915 L 1033,914 L 1033,913 L 1032,912 L 1032,909 L 1031,908 L 1031,891 L 1032,890 L 1032,887 L 1033,886 L 1033,884 L 1034,883 L 1034,882 L 1040,876 L 1041,876 L 1042,875 L 1044,875 L 1045,874 L 1054,874 L 1055,875 L 1057,875 L 1058,876 L 1059,876 L 1064,881 L 1064,882 L 1065,883 L 1065,885 L 1080,885 L 1080,883 L 1079,882 L 1079,880 L 1078,879 L 1078,878 L 1077,877 L 1077,876 L 1075,874 L 1075,873 L 1069,867 L 1068,867 L 1067,866 L 1066,866 L 1065,865 L 1064,865 L 1063,864 L 1061,864 L 1060,863 L 1057,863 L 1056,862 Z" fill="Teal" /><path d="M 834,862 L 833,863 L 830,863 L 829,864 L 827,864 L 826,865 L 825,865 L 824,866 L 823,866 L 822,867 L 821,867 L 817,871 L 816,871 L 815,872 L 815,873 L 812,876 L 812,877 L 810,879 L 810,880 L 809,881 L 809,882 L 808,883 L 808,885 L 807,886 L 807,888 L 806,889 L 806,894 L 805,895 L 805,905 L 806,906 L 806,910 L 807,911 L 807,914 L 808,915 L 808,916 L 809,917 L 809,919 L 811,921 L 811,922 L 813,924 L 813,925 L 818,930 L 819,930 L 821,932 L 822,932 L 823,933 L 824,933 L 825,934 L 826,934 L 827,935 L 829,935 L 830,936 L 836,936 L 837,937 L 844,937 L 845,936 L 850,936 L 851,935 L 853,935 L 854,934 L 855,934 L 856,933 L 857,933 L 858,932 L 859,932 L 861,930 L 862,930 L 868,924 L 868,923 L 870,921 L 870,920 L 871,919 L 871,918 L 872,917 L 872,916 L 873,915 L 873,913 L 874,912 L 874,910 L 875,909 L 875,904 L 876,903 L 876,894 L 875,893 L 875,889 L 874,888 L 874,885 L 873,884 L 873,883 L 872,882 L 872,880 L 871,879 L 871,878 L 869,876 L 869,875 L 862,868 L 861,868 L 859,866 L 858,866 L 857,865 L 856,865 L 855,864 L 853,864 L 852,863 L 849,863 L 848,862 Z" fill="Teal" /><path d="M 607,862 L 606,863 L 603,863 L 602,864 L 600,864 L 599,865 L 598,865 L 597,866 L 596,866 L 595,867 L 594,867 L 591,870 L 590,870 L 587,873 L 587,874 L 584,877 L 584,878 L 583,879 L 583,880 L 582,881 L 582,882 L 581,883 L 581,886 L 580,887 L 580,890 L 579,891 L 579,908 L 580,909 L 580,913 L 581,914 L 581,916 L 582,917 L 582,919 L 583,920 L 583,921 L 585,923 L 585,924 L 588,927 L 588,928 L 589,929 L 590,929 L 592,931 L 593,931 L 595,933 L 596,933 L 597,934 L 599,934 L 600,935 L 602,935 L 603,936 L 608,936 L 609,937 L 617,937 L 618,936 L 623,936 L 624,935 L 625,935 L 626,934 L 628,934 L 629,933 L 630,933 L 632,931 L 633,931 L 639,925 L 639,924 L 640,923 L 640,922 L 642,920 L 642,918 L 643,917 L 643,914 L 644,913 L 629,913 L 629,914 L 628,915 L 628,917 L 626,919 L 626,920 L 624,922 L 623,922 L 621,924 L 618,924 L 617,925 L 610,925 L 609,924 L 606,924 L 605,923 L 604,923 L 597,916 L 597,915 L 596,914 L 596,912 L 595,911 L 595,907 L 594,906 L 594,893 L 595,892 L 595,888 L 596,887 L 596,885 L 597,884 L 597,883 L 599,881 L 599,880 L 602,877 L 603,877 L 604,876 L 605,876 L 606,875 L 607,875 L 608,874 L 617,874 L 618,875 L 620,875 L 621,876 L 622,876 L 628,882 L 628,884 L 629,885 L 629,887 L 630,887 L 631,886 L 632,886 L 633,887 L 636,887 L 637,886 L 639,886 L 640,887 L 641,886 L 642,887 L 643,887 L 644,886 L 643,885 L 643,882 L 642,881 L 642,879 L 641,878 L 641,877 L 639,875 L 639,874 L 637,872 L 637,871 L 635,869 L 634,869 L 631,866 L 630,866 L 629,865 L 628,865 L 627,864 L 625,864 L 624,863 L 620,863 L 619,862 Z" fill="Teal" /><path d="M 827,758 L 827,830 L 876,830 L 876,818 L 843,818 L 842,817 L 842,758 Z" fill="Teal" /><path d="M 1051,757 L 1051,830 L 1065,830 L 1065,800 L 1066,799 L 1095,799 L 1096,800 L 1096,830 L 1110,830 L 1110,757 L 1109,758 L 1096,758 L 1096,785 L 1095,786 L 1066,786 L 1065,785 L 1065,758 L 1052,758 Z" fill="Teal" /><path d="M 936,757 L 935,758 L 917,758 L 917,759 L 916,760 L 916,762 L 915,763 L 915,765 L 914,766 L 914,768 L 913,769 L 913,771 L 912,772 L 912,773 L 911,774 L 911,776 L 910,777 L 910,779 L 909,780 L 909,782 L 908,783 L 908,785 L 907,786 L 907,788 L 906,789 L 906,791 L 905,792 L 905,793 L 904,794 L 904,796 L 903,797 L 903,799 L 902,800 L 902,802 L 901,803 L 901,805 L 900,806 L 900,808 L 899,809 L 899,811 L 898,812 L 898,813 L 897,814 L 897,816 L 896,817 L 896,819 L 895,820 L 895,822 L 894,823 L 894,825 L 893,826 L 893,828 L 892,829 L 892,830 L 906,830 L 907,829 L 907,827 L 908,826 L 908,824 L 909,823 L 909,821 L 910,820 L 910,819 L 911,818 L 911,815 L 912,814 L 912,813 L 913,812 L 914,812 L 915,813 L 916,813 L 917,812 L 919,812 L 920,813 L 930,813 L 931,812 L 932,813 L 933,813 L 934,812 L 940,812 L 941,813 L 941,814 L 942,815 L 942,817 L 943,818 L 943,820 L 944,821 L 944,823 L 945,824 L 945,826 L 946,827 L 946,829 L 947,830 L 962,830 L 962,829 L 961,828 L 961,827 L 960,826 L 960,824 L 959,823 L 959,822 L 958,821 L 958,819 L 957,818 L 957,816 L 956,815 L 956,813 L 955,812 L 955,810 L 954,809 L 954,807 L 953,806 L 953,805 L 952,804 L 952,802 L 951,801 L 951,799 L 950,798 L 950,796 L 949,795 L 949,793 L 948,792 L 948,790 L 947,789 L 947,787 L 946,786 L 946,785 L 945,784 L 945,782 L 944,781 L 944,779 L 943,778 L 943,776 L 942,775 L 942,773 L 941,772 L 941,771 L 940,770 L 940,768 L 939,767 L 939,765 L 938,764 L 938,762 L 937,761 L 937,760 L 936,759 Z" fill="Teal" /><path d="M 790,757 L 790,830 L 804,830 L 804,757 L 803,758 L 791,758 Z" fill="Teal" /><path d="M 747,757 L 746,758 L 728,758 L 727,759 L 727,761 L 726,762 L 726,764 L 725,765 L 725,767 L 724,768 L 724,769 L 723,770 L 723,772 L 722,773 L 722,775 L 721,776 L 721,778 L 720,779 L 720,781 L 719,782 L 719,784 L 718,785 L 718,786 L 717,787 L 717,789 L 716,790 L 716,792 L 715,793 L 715,795 L 714,796 L 714,798 L 713,799 L 713,801 L 712,802 L 712,804 L 711,805 L 711,806 L 710,807 L 710,809 L 709,810 L 709,812 L 708,813 L 708,815 L 707,816 L 707,818 L 706,819 L 706,821 L 705,822 L 705,824 L 704,825 L 704,826 L 703,827 L 703,829 L 702,830 L 717,830 L 718,829 L 718,827 L 719,826 L 719,824 L 720,823 L 720,821 L 721,820 L 721,818 L 722,817 L 722,815 L 723,814 L 723,813 L 724,812 L 725,812 L 726,813 L 727,812 L 728,813 L 731,813 L 732,812 L 733,813 L 739,813 L 740,812 L 741,813 L 742,812 L 748,812 L 749,813 L 750,812 L 752,814 L 752,815 L 753,816 L 753,818 L 754,819 L 754,821 L 755,822 L 755,824 L 756,825 L 756,827 L 757,828 L 757,830 L 772,830 L 772,829 L 771,828 L 771,827 L 770,826 L 770,824 L 769,823 L 769,821 L 768,820 L 768,818 L 767,817 L 767,815 L 766,814 L 766,812 L 765,811 L 765,809 L 764,808 L 764,806 L 763,805 L 763,803 L 762,802 L 762,800 L 761,799 L 761,798 L 760,797 L 760,795 L 759,794 L 759,791 L 758,790 L 758,789 L 757,788 L 757,786 L 756,785 L 756,783 L 755,782 L 755,780 L 754,779 L 754,777 L 753,776 L 753,774 L 752,773 L 752,771 L 751,770 L 751,768 L 750,767 L 750,765 L 749,764 L 749,762 L 748,761 L 748,759 L 747,758 Z" fill="Teal" /><path d="M 627,757 L 626,758 L 626,830 L 641,830 L 641,806 L 645,802 L 645,801 L 648,798 L 649,798 L 651,800 L 651,801 L 653,803 L 653,804 L 655,806 L 655,807 L 657,809 L 657,810 L 659,812 L 659,813 L 661,815 L 661,816 L 663,818 L 663,819 L 664,820 L 664,821 L 666,823 L 666,824 L 668,826 L 668,827 L 670,829 L 670,830 L 688,830 L 688,829 L 686,827 L 686,826 L 684,824 L 684,823 L 682,821 L 682,820 L 680,818 L 680,817 L 678,815 L 678,814 L 676,812 L 676,811 L 674,809 L 674,808 L 672,806 L 672,805 L 669,802 L 669,801 L 667,799 L 667,798 L 665,796 L 665,795 L 663,793 L 663,792 L 661,790 L 661,789 L 660,788 L 660,787 L 662,785 L 662,784 L 670,776 L 670,775 L 680,765 L 680,764 L 686,758 L 686,757 L 685,758 L 670,758 L 669,757 L 663,763 L 663,764 L 656,771 L 656,772 L 648,780 L 648,781 L 642,787 L 641,786 L 641,758 L 628,758 Z" fill="Teal" /><path d="M 557,757 L 557,830 L 571,830 L 571,757 L 570,758 L 558,758 Z" fill="Teal" /><path d="M 482,757 L 482,828 L 481,829 L 482,830 L 496,830 L 496,802 L 497,801 L 509,801 L 510,802 L 510,803 L 511,804 L 511,805 L 512,806 L 512,807 L 513,808 L 513,810 L 514,811 L 514,812 L 515,813 L 515,814 L 516,815 L 516,816 L 517,817 L 517,818 L 518,819 L 518,820 L 519,821 L 519,822 L 520,823 L 520,824 L 521,825 L 521,826 L 522,827 L 522,828 L 523,829 L 523,830 L 538,830 L 538,829 L 536,827 L 536,825 L 535,824 L 535,823 L 534,822 L 534,821 L 533,820 L 533,819 L 532,818 L 532,817 L 531,816 L 531,815 L 530,814 L 530,813 L 529,812 L 529,811 L 528,810 L 528,808 L 527,807 L 527,806 L 526,805 L 526,804 L 525,803 L 525,802 L 524,801 L 524,800 L 523,799 L 524,798 L 525,798 L 526,797 L 527,797 L 528,796 L 529,796 L 532,793 L 532,792 L 534,790 L 534,789 L 535,788 L 535,786 L 536,785 L 536,774 L 535,773 L 535,771 L 534,770 L 534,769 L 532,767 L 532,766 L 528,762 L 527,762 L 526,761 L 525,761 L 524,760 L 523,760 L 522,759 L 520,759 L 519,758 L 483,758 Z" fill="Teal" /><path d="M 998,756 L 997,757 L 993,757 L 992,758 L 990,758 L 989,759 L 988,759 L 986,761 L 985,761 L 979,767 L 979,768 L 978,769 L 978,771 L 977,772 L 977,776 L 976,777 L 976,780 L 977,781 L 977,785 L 978,786 L 978,787 L 979,788 L 979,789 L 982,792 L 983,792 L 985,794 L 986,794 L 987,795 L 988,795 L 989,796 L 991,796 L 992,797 L 995,797 L 996,798 L 999,798 L 1000,799 L 1003,799 L 1004,800 L 1007,800 L 1008,801 L 1010,801 L 1011,802 L 1012,802 L 1013,803 L 1014,803 L 1015,804 L 1015,805 L 1017,807 L 1017,813 L 1012,818 L 1011,818 L 1010,819 L 998,819 L 997,818 L 995,818 L 994,817 L 993,817 L 990,814 L 990,813 L 989,812 L 989,811 L 988,810 L 988,809 L 975,809 L 975,813 L 976,814 L 976,817 L 977,818 L 977,819 L 979,821 L 979,822 L 982,825 L 983,825 L 985,827 L 986,827 L 987,828 L 989,828 L 990,829 L 992,829 L 993,830 L 999,830 L 1000,831 L 1007,831 L 1008,830 L 1013,830 L 1014,829 L 1016,829 L 1017,828 L 1019,828 L 1020,827 L 1021,827 L 1023,825 L 1024,825 L 1027,822 L 1027,821 L 1029,819 L 1029,817 L 1030,816 L 1030,814 L 1031,813 L 1031,802 L 1030,801 L 1030,800 L 1029,799 L 1029,798 L 1028,797 L 1028,796 L 1026,794 L 1025,794 L 1023,792 L 1022,792 L 1021,791 L 1020,791 L 1019,790 L 1017,790 L 1016,789 L 1013,789 L 1012,788 L 1009,788 L 1008,787 L 1005,787 L 1004,786 L 1001,786 L 1000,785 L 998,785 L 997,784 L 995,784 L 991,780 L 991,773 L 996,768 L 998,768 L 999,767 L 1005,767 L 1006,768 L 1009,768 L 1010,769 L 1011,769 L 1016,774 L 1016,776 L 1017,777 L 1030,777 L 1030,773 L 1029,772 L 1029,770 L 1028,769 L 1028,768 L 1027,767 L 1027,766 L 1022,761 L 1021,761 L 1020,760 L 1019,760 L 1018,759 L 1017,759 L 1016,758 L 1014,758 L 1013,757 L 1009,757 L 1008,756 Z" fill="Teal" /><path d="M 430,756 L 429,757 L 426,757 L 425,758 L 423,758 L 422,759 L 420,759 L 418,761 L 417,761 L 412,766 L 412,767 L 410,769 L 410,771 L 409,772 L 409,775 L 408,776 L 408,780 L 409,781 L 409,785 L 410,786 L 410,787 L 411,788 L 411,789 L 415,793 L 416,793 L 417,794 L 418,794 L 419,795 L 420,795 L 421,796 L 423,796 L 424,797 L 426,797 L 427,798 L 430,798 L 431,799 L 434,799 L 435,800 L 438,800 L 439,801 L 441,801 L 442,802 L 443,802 L 444,803 L 445,803 L 447,805 L 447,806 L 448,807 L 448,808 L 449,809 L 449,811 L 448,812 L 448,814 L 445,817 L 444,817 L 443,818 L 442,818 L 441,819 L 429,819 L 428,818 L 427,818 L 426,817 L 425,817 L 420,812 L 420,809 L 407,809 L 407,815 L 408,816 L 408,817 L 409,818 L 409,819 L 410,820 L 410,821 L 415,826 L 416,826 L 417,827 L 418,827 L 419,828 L 420,828 L 421,829 L 423,829 L 424,830 L 430,830 L 431,831 L 437,831 L 438,830 L 444,830 L 445,829 L 447,829 L 448,828 L 450,828 L 451,827 L 452,827 L 453,826 L 454,826 L 459,821 L 459,820 L 460,819 L 460,818 L 461,817 L 461,816 L 462,815 L 462,809 L 463,808 L 463,807 L 462,806 L 462,801 L 461,800 L 461,799 L 460,798 L 460,797 L 456,793 L 455,793 L 454,792 L 453,792 L 452,791 L 451,791 L 450,790 L 448,790 L 447,789 L 445,789 L 444,788 L 441,788 L 440,787 L 436,787 L 435,786 L 432,786 L 431,785 L 429,785 L 428,784 L 427,784 L 423,780 L 423,778 L 422,777 L 422,775 L 423,774 L 423,773 L 428,768 L 431,768 L 432,767 L 436,767 L 437,768 L 441,768 L 442,769 L 443,769 L 448,774 L 448,776 L 449,777 L 462,777 L 462,773 L 461,772 L 461,770 L 460,769 L 460,768 L 458,766 L 458,765 L 455,762 L 454,762 L 452,760 L 451,760 L 450,759 L 449,759 L 448,758 L 446,758 L 445,757 L 441,757 L 440,756 Z" fill="Teal" /><path d="M 938,436 L 938,700 L 939,701 L 939,702 L 938,703 L 938,704 L 939,705 L 939,716 L 938,717 L 939,718 L 940,717 L 941,718 L 1159,718 L 1160,717 L 1161,718 L 1161,666 L 1004,666 L 1003,665 L 1003,603 L 1002,602 L 1002,601 L 1003,600 L 1143,600 L 1143,549 L 1003,549 L 1002,548 L 1002,492 L 1003,491 L 1155,491 L 1155,436 Z" fill="Teal" /><path d="M 640,436 L 640,718 L 705,718 L 705,630 L 740,595 L 741,596 L 741,597 L 743,599 L 743,600 L 745,602 L 745,603 L 747,605 L 747,606 L 750,609 L 750,610 L 752,612 L 752,613 L 754,615 L 754,616 L 756,618 L 756,619 L 758,621 L 758,622 L 760,624 L 760,625 L 763,628 L 763,629 L 765,631 L 765,632 L 767,634 L 767,635 L 769,637 L 769,638 L 771,640 L 771,641 L 773,643 L 773,644 L 775,646 L 775,647 L 778,650 L 778,651 L 780,653 L 780,654 L 782,656 L 782,657 L 784,659 L 784,660 L 786,662 L 786,663 L 788,665 L 788,666 L 790,668 L 790,669 L 792,671 L 792,672 L 795,675 L 795,676 L 797,678 L 797,679 L 799,681 L 799,682 L 801,684 L 801,685 L 803,687 L 803,688 L 805,690 L 805,691 L 807,693 L 807,694 L 809,696 L 809,697 L 812,700 L 812,701 L 814,703 L 814,704 L 816,706 L 816,707 L 818,709 L 818,710 L 820,712 L 820,713 L 822,715 L 822,716 L 824,718 L 825,717 L 826,717 L 827,718 L 901,718 L 901,717 L 898,714 L 898,713 L 896,711 L 896,710 L 893,707 L 893,706 L 891,704 L 891,703 L 889,701 L 889,700 L 886,697 L 886,696 L 884,694 L 884,693 L 882,691 L 882,690 L 880,688 L 880,687 L 877,684 L 877,683 L 875,681 L 875,680 L 872,677 L 872,676 L 870,674 L 870,673 L 868,671 L 868,670 L 865,667 L 865,666 L 863,664 L 863,663 L 861,661 L 861,660 L 859,658 L 859,657 L 856,654 L 856,653 L 854,651 L 854,650 L 851,647 L 851,646 L 849,644 L 849,643 L 847,641 L 847,640 L 845,638 L 845,637 L 842,634 L 842,633 L 840,631 L 840,630 L 837,627 L 837,626 L 835,624 L 835,623 L 833,621 L 833,620 L 830,617 L 830,616 L 828,614 L 828,613 L 826,611 L 826,610 L 823,607 L 823,606 L 821,604 L 821,603 L 819,601 L 819,600 L 816,597 L 816,596 L 814,594 L 814,593 L 812,591 L 812,590 L 809,587 L 809,586 L 807,584 L 807,583 L 805,581 L 805,580 L 802,577 L 802,576 L 800,574 L 800,573 L 798,571 L 798,570 L 795,567 L 795,566 L 793,564 L 793,563 L 790,560 L 790,559 L 788,557 L 788,556 L 786,554 L 786,553 L 785,552 L 785,551 L 803,533 L 803,532 L 828,507 L 828,506 L 854,480 L 854,479 L 855,478 L 856,478 L 856,477 L 884,449 L 884,448 L 895,437 L 894,436 L 820,436 L 810,446 L 810,447 L 799,458 L 799,459 L 786,472 L 786,473 L 774,485 L 774,486 L 764,496 L 764,497 L 752,509 L 752,510 L 741,521 L 741,522 L 728,535 L 728,536 L 717,547 L 717,548 L 705,560 L 704,559 L 704,558 L 705,557 L 705,437 L 704,436 Z" fill="Teal" /><path d="M 466,431 L 465,432 L 454,432 L 453,433 L 447,433 L 446,434 L 441,434 L 440,435 L 437,435 L 436,436 L 433,436 L 432,437 L 430,437 L 429,438 L 427,438 L 426,439 L 424,439 L 423,440 L 421,440 L 420,441 L 419,441 L 418,442 L 417,442 L 416,443 L 415,443 L 414,444 L 413,444 L 412,445 L 411,445 L 410,446 L 409,446 L 408,447 L 407,447 L 405,449 L 404,449 L 402,451 L 401,451 L 397,455 L 396,455 L 387,464 L 387,465 L 384,468 L 384,469 L 382,471 L 382,472 L 380,474 L 380,475 L 379,476 L 379,477 L 378,478 L 378,479 L 377,480 L 377,481 L 376,482 L 376,483 L 375,484 L 375,486 L 374,487 L 374,489 L 373,490 L 373,493 L 372,494 L 372,497 L 371,498 L 371,502 L 370,503 L 370,531 L 371,532 L 371,536 L 372,537 L 372,540 L 373,541 L 373,542 L 374,543 L 374,545 L 375,546 L 375,547 L 376,548 L 376,549 L 377,550 L 377,551 L 378,552 L 378,553 L 380,555 L 380,556 L 382,558 L 382,559 L 385,562 L 385,563 L 392,570 L 393,570 L 398,575 L 399,575 L 401,577 L 402,577 L 404,579 L 405,579 L 407,581 L 408,581 L 409,582 L 410,582 L 411,583 L 412,583 L 413,584 L 414,584 L 415,585 L 416,585 L 417,586 L 418,586 L 419,587 L 420,587 L 421,588 L 422,588 L 423,589 L 425,589 L 426,590 L 428,590 L 429,591 L 430,591 L 431,592 L 433,592 L 434,593 L 436,593 L 437,594 L 439,594 L 440,595 L 443,595 L 444,596 L 446,596 L 447,597 L 449,597 L 450,598 L 453,598 L 454,599 L 457,599 L 458,600 L 461,600 L 462,601 L 464,601 L 465,602 L 468,602 L 469,603 L 472,603 L 473,604 L 476,604 L 477,605 L 481,605 L 482,606 L 485,606 L 486,607 L 489,607 L 490,608 L 493,608 L 494,609 L 497,609 L 498,610 L 501,610 L 502,611 L 504,611 L 505,612 L 507,612 L 508,613 L 510,613 L 511,614 L 512,614 L 513,615 L 515,615 L 516,616 L 517,616 L 519,618 L 520,618 L 528,626 L 528,627 L 530,629 L 530,631 L 531,632 L 531,634 L 532,635 L 532,650 L 531,651 L 531,653 L 530,654 L 530,655 L 528,657 L 528,658 L 521,665 L 520,665 L 518,667 L 517,667 L 516,668 L 515,668 L 514,669 L 512,669 L 511,670 L 509,670 L 508,671 L 506,671 L 505,672 L 500,672 L 499,673 L 492,673 L 491,674 L 476,674 L 475,673 L 467,673 L 466,672 L 461,672 L 460,671 L 458,671 L 457,670 L 455,670 L 454,669 L 452,669 L 451,668 L 450,668 L 449,667 L 448,667 L 447,666 L 446,666 L 445,665 L 444,665 L 441,662 L 440,662 L 431,653 L 431,652 L 430,651 L 430,650 L 428,648 L 428,646 L 427,645 L 427,644 L 426,643 L 426,641 L 425,640 L 425,637 L 424,636 L 424,632 L 360,632 L 360,641 L 361,642 L 361,648 L 362,649 L 362,652 L 363,653 L 363,656 L 364,657 L 364,659 L 365,660 L 365,661 L 366,662 L 366,664 L 367,665 L 367,666 L 368,667 L 368,668 L 369,669 L 369,671 L 370,672 L 370,673 L 372,675 L 372,676 L 373,677 L 373,678 L 376,681 L 376,682 L 380,686 L 380,687 L 390,697 L 391,697 L 394,700 L 395,700 L 398,703 L 399,703 L 401,705 L 402,705 L 403,706 L 404,706 L 406,708 L 407,708 L 408,709 L 409,709 L 410,710 L 411,710 L 412,711 L 413,711 L 414,712 L 415,712 L 416,713 L 418,713 L 419,714 L 420,714 L 421,715 L 423,715 L 424,716 L 425,716 L 426,717 L 428,717 L 429,718 L 432,718 L 433,719 L 436,719 L 437,720 L 441,720 L 442,721 L 447,721 L 448,722 L 455,722 L 456,723 L 468,723 L 469,724 L 489,724 L 490,723 L 503,723 L 504,722 L 512,722 L 513,721 L 518,721 L 519,720 L 523,720 L 524,719 L 527,719 L 528,718 L 531,718 L 532,717 L 534,717 L 535,716 L 538,716 L 539,715 L 540,715 L 541,714 L 543,714 L 544,713 L 545,713 L 546,712 L 548,712 L 549,711 L 550,711 L 551,710 L 552,710 L 553,709 L 554,709 L 555,708 L 556,708 L 558,706 L 559,706 L 560,705 L 561,705 L 564,702 L 565,702 L 568,699 L 569,699 L 578,690 L 578,689 L 582,685 L 582,684 L 584,682 L 584,681 L 586,679 L 586,678 L 587,677 L 587,676 L 588,675 L 588,674 L 589,673 L 589,672 L 590,671 L 590,670 L 591,669 L 591,667 L 592,666 L 592,664 L 593,663 L 593,661 L 594,660 L 594,657 L 595,656 L 595,652 L 596,651 L 596,646 L 597,645 L 597,618 L 596,617 L 596,613 L 595,612 L 595,609 L 594,608 L 594,606 L 593,605 L 593,603 L 592,602 L 592,601 L 591,600 L 591,599 L 590,598 L 590,597 L 589,596 L 589,595 L 587,593 L 587,592 L 585,590 L 585,589 L 581,585 L 581,584 L 575,578 L 574,578 L 570,574 L 569,574 L 567,572 L 566,572 L 564,570 L 563,570 L 561,568 L 560,568 L 559,567 L 558,567 L 556,565 L 555,565 L 554,564 L 553,564 L 552,563 L 551,563 L 550,562 L 549,562 L 548,561 L 546,561 L 545,560 L 544,560 L 543,559 L 541,559 L 540,558 L 538,558 L 537,557 L 535,557 L 534,556 L 532,556 L 531,555 L 529,555 L 528,554 L 526,554 L 525,553 L 522,553 L 521,552 L 519,552 L 518,551 L 515,551 L 514,550 L 511,550 L 510,549 L 508,549 L 507,548 L 504,548 L 503,547 L 499,547 L 498,546 L 495,546 L 494,545 L 491,545 L 490,544 L 487,544 L 486,543 L 483,543 L 482,542 L 479,542 L 478,541 L 475,541 L 474,540 L 471,540 L 470,539 L 467,539 L 466,538 L 464,538 L 463,537 L 461,537 L 460,536 L 458,536 L 457,535 L 455,535 L 454,534 L 453,534 L 452,533 L 451,533 L 450,532 L 449,532 L 447,530 L 446,530 L 440,524 L 440,523 L 438,521 L 438,519 L 437,518 L 437,515 L 436,514 L 436,509 L 437,508 L 437,504 L 438,503 L 438,502 L 439,501 L 439,500 L 440,499 L 440,498 L 448,490 L 449,490 L 450,489 L 451,489 L 452,488 L 453,488 L 454,487 L 456,487 L 457,486 L 459,486 L 460,485 L 463,485 L 464,484 L 473,484 L 474,483 L 483,483 L 484,484 L 492,484 L 493,485 L 496,485 L 497,486 L 500,486 L 501,487 L 502,487 L 503,488 L 505,488 L 506,489 L 507,489 L 509,491 L 510,491 L 511,492 L 512,492 L 521,501 L 521,502 L 522,503 L 522,504 L 523,505 L 523,506 L 524,507 L 524,509 L 525,510 L 525,513 L 526,514 L 526,517 L 590,517 L 590,508 L 589,507 L 589,502 L 588,501 L 588,498 L 587,497 L 587,494 L 586,493 L 586,491 L 585,490 L 585,489 L 584,488 L 584,486 L 583,485 L 583,484 L 582,483 L 582,482 L 581,481 L 581,480 L 580,479 L 580,478 L 579,477 L 579,476 L 578,475 L 578,474 L 576,472 L 576,471 L 574,469 L 574,468 L 561,455 L 560,455 L 557,452 L 556,452 L 554,450 L 553,450 L 552,449 L 551,449 L 549,447 L 548,447 L 547,446 L 546,446 L 545,445 L 544,445 L 543,444 L 542,444 L 541,443 L 540,443 L 539,442 L 537,442 L 536,441 L 535,441 L 534,440 L 532,440 L 531,439 L 529,439 L 528,438 L 526,438 L 525,437 L 522,437 L 521,436 L 518,436 L 517,435 L 513,435 L 512,434 L 507,434 L 506,433 L 501,433 L 500,432 L 489,432 L 488,431 Z" fill="Teal" /><path d="M 825,123 L 824,124 L 821,124 L 820,125 L 819,125 L 818,126 L 817,126 L 816,127 L 815,127 L 813,129 L 812,129 L 806,135 L 806,136 L 804,138 L 804,139 L 803,140 L 803,141 L 802,142 L 802,143 L 801,144 L 801,147 L 800,148 L 800,154 L 799,155 L 799,156 L 800,157 L 800,163 L 801,164 L 801,166 L 802,167 L 802,168 L 803,169 L 803,170 L 804,171 L 804,172 L 806,174 L 806,175 L 811,180 L 812,180 L 814,182 L 815,182 L 816,183 L 817,183 L 818,184 L 819,184 L 820,185 L 821,185 L 823,187 L 823,254 L 816,261 L 815,261 L 801,275 L 800,275 L 793,282 L 792,282 L 778,268 L 777,268 L 760,251 L 759,251 L 749,241 L 749,222 L 751,220 L 752,220 L 753,219 L 755,219 L 757,217 L 758,217 L 760,215 L 761,215 L 765,211 L 765,210 L 768,207 L 768,206 L 769,205 L 769,204 L 770,203 L 770,201 L 771,200 L 771,197 L 772,196 L 772,184 L 771,183 L 771,180 L 770,179 L 770,178 L 769,177 L 769,176 L 768,175 L 768,174 L 767,173 L 767,172 L 759,164 L 758,164 L 756,162 L 755,162 L 754,161 L 752,161 L 751,160 L 749,160 L 748,159 L 744,159 L 743,158 L 736,158 L 735,159 L 731,159 L 730,160 L 729,160 L 728,161 L 726,161 L 725,162 L 724,162 L 722,164 L 721,164 L 713,172 L 713,173 L 711,175 L 711,177 L 710,178 L 710,179 L 709,180 L 709,183 L 708,184 L 708,197 L 709,198 L 709,201 L 710,202 L 710,203 L 711,204 L 711,205 L 712,206 L 712,207 L 713,208 L 713,209 L 720,216 L 721,216 L 723,218 L 724,218 L 725,219 L 726,219 L 727,220 L 729,220 L 731,222 L 731,250 L 744,263 L 745,263 L 763,281 L 764,281 L 782,299 L 783,299 L 784,300 L 784,340 L 783,341 L 782,341 L 769,328 L 768,328 L 752,312 L 751,312 L 736,297 L 735,297 L 724,286 L 723,286 L 721,284 L 720,284 L 719,283 L 718,283 L 717,282 L 714,282 L 713,281 L 709,281 L 708,282 L 704,282 L 703,283 L 702,283 L 701,284 L 700,284 L 656,328 L 656,329 L 600,385 L 600,386 L 570,416 L 570,417 L 569,418 L 569,419 L 617,419 L 632,404 L 632,403 L 657,378 L 657,377 L 690,344 L 690,343 L 711,322 L 712,322 L 720,330 L 721,330 L 731,340 L 732,340 L 745,353 L 746,353 L 758,365 L 759,365 L 771,377 L 772,377 L 784,389 L 785,389 L 796,400 L 797,400 L 808,411 L 809,411 L 812,414 L 813,414 L 814,415 L 815,415 L 817,417 L 819,417 L 820,418 L 822,418 L 823,419 L 829,419 L 830,420 L 834,420 L 835,419 L 841,419 L 842,418 L 844,418 L 845,417 L 846,417 L 847,416 L 848,416 L 849,415 L 850,415 L 851,414 L 852,414 L 853,413 L 854,413 L 855,412 L 856,412 L 857,411 L 858,411 L 859,410 L 860,410 L 862,408 L 863,408 L 864,407 L 865,407 L 866,406 L 867,406 L 869,404 L 873,404 L 888,419 L 931,419 L 931,418 L 928,415 L 927,415 L 908,396 L 907,396 L 888,377 L 887,377 L 881,371 L 880,371 L 879,370 L 877,370 L 876,369 L 871,369 L 870,370 L 869,370 L 868,371 L 867,371 L 866,372 L 865,372 L 864,373 L 863,373 L 862,374 L 861,374 L 860,375 L 859,375 L 858,376 L 857,376 L 856,377 L 855,377 L 853,379 L 852,379 L 851,380 L 850,380 L 849,381 L 848,381 L 846,383 L 845,383 L 844,382 L 844,350 L 846,348 L 847,348 L 855,340 L 856,340 L 863,333 L 864,333 L 871,326 L 872,326 L 879,319 L 880,319 L 887,312 L 888,312 L 894,306 L 895,306 L 903,298 L 904,298 L 911,291 L 912,291 L 921,282 L 921,281 L 922,280 L 922,249 L 923,248 L 925,248 L 926,247 L 927,247 L 928,246 L 929,246 L 930,245 L 931,245 L 933,243 L 934,243 L 939,238 L 939,237 L 941,235 L 941,234 L 942,233 L 942,232 L 943,231 L 943,230 L 944,229 L 944,227 L 945,226 L 945,222 L 946,221 L 946,214 L 945,213 L 945,209 L 944,208 L 944,206 L 943,205 L 943,204 L 942,203 L 942,202 L 941,201 L 941,200 L 938,197 L 938,196 L 935,193 L 934,193 L 931,190 L 930,190 L 929,189 L 928,189 L 927,188 L 926,188 L 925,187 L 923,187 L 922,186 L 919,186 L 918,185 L 910,185 L 909,186 L 905,186 L 904,187 L 902,187 L 901,188 L 900,188 L 899,189 L 898,189 L 897,190 L 896,190 L 894,192 L 893,192 L 888,197 L 888,198 L 886,200 L 886,201 L 884,203 L 884,205 L 883,206 L 883,208 L 882,209 L 882,212 L 881,213 L 881,223 L 882,224 L 882,227 L 883,228 L 883,230 L 884,231 L 884,232 L 885,233 L 885,234 L 887,236 L 887,237 L 894,244 L 895,244 L 897,246 L 898,246 L 899,247 L 900,247 L 901,248 L 902,248 L 903,249 L 903,273 L 895,281 L 894,281 L 888,287 L 887,287 L 881,293 L 880,293 L 874,299 L 873,299 L 867,305 L 866,305 L 860,311 L 859,311 L 851,319 L 850,319 L 844,325 L 843,325 L 837,331 L 836,331 L 826,341 L 826,342 L 825,343 L 826,344 L 826,380 L 825,381 L 824,381 L 802,359 L 802,300 L 817,285 L 818,285 L 841,262 L 841,187 L 843,185 L 845,185 L 846,184 L 847,184 L 848,183 L 849,183 L 851,181 L 852,181 L 858,175 L 858,174 L 860,172 L 860,171 L 861,170 L 861,169 L 862,168 L 862,167 L 863,166 L 863,164 L 864,163 L 864,156 L 865,155 L 864,154 L 864,147 L 863,146 L 863,144 L 862,143 L 862,142 L 861,141 L 861,140 L 860,139 L 860,138 L 858,136 L 858,135 L 852,129 L 851,129 L 849,127 L 848,127 L 847,126 L 846,126 L 845,125 L 843,125 L 842,124 L 840,124 L 839,123 Z" fill="Teal" /></svg>